<svg width="36" height="36" viewBox="0 0 36 36" fill="none" xmlns="http://www.w3.org/2000/svg">
<path d="M33.192 17.0821H31.95C31.5 9.79207 25.434 4.01407 18.036 4.01407C10.332 4.01407 4.104 10.2601 4.104 17.9641C4.104 25.6681 10.35 31.8961 18.036 31.8961H18.054C18.63 31.8961 19.116 31.4281 19.116 30.8341C19.116 30.2581 18.648 29.7721 18.054 29.7721H18.036C11.502 29.7721 6.228 24.4801 6.228 17.9641C6.228 11.4301 11.52 6.13807 18.036 6.13807C24.264 6.13807 29.376 10.9621 29.826 17.0821H28.242C27.954 17.0821 27.702 17.1901 27.504 17.3881C27.09 17.8021 27.09 18.4681 27.504 18.8821L29.988 21.3661C30.186 21.5641 30.456 21.6721 30.726 21.6721C31.014 21.6721 31.266 21.5641 31.464 21.3661L33.948 18.8821C34.146 18.6841 34.254 18.4141 34.254 18.1441C34.236 17.5681 33.768 17.0821 33.192 17.0821Z" fill="#A6A6A6"/>
<path d="M12.78 20.5921H14.382V15.5161H13.068V14.7961C13.752 14.6701 14.238 14.5081 14.652 14.2381H15.516V20.5921H16.938V21.5281H12.78V20.5921ZM17.838 20.6821L18.378 19.9441C18.792 20.3581 19.314 20.7181 20.088 20.7181C20.916 20.7181 21.528 20.1421 21.528 19.1701C21.528 18.1981 20.97 17.6401 20.142 17.6401C19.674 17.6401 19.404 17.7841 18.972 18.0541L18.414 17.6941L18.63 14.2381H22.32V15.1921H19.62L19.458 17.0641C19.764 16.9021 20.07 16.8121 20.466 16.8121C21.69 16.8121 22.68 17.5321 22.68 19.1341C22.68 20.7541 21.51 21.6541 20.232 21.6541C19.08 21.6541 18.36 21.1861 17.838 20.6821Z" fill="#A6A6A6"/>
</svg>
