<svg width="50" height="50" viewBox="0 0 50 50" fill="none" xmlns="http://www.w3.org/2000/svg">
<path d="M25 49.9999C11.25 49.9999 0 38.7499 0 24.9999C0 11.2499 11.25 -6.10352e-05 25 -6.10352e-05C38.75 -6.10352e-05 50 11.2499 50 24.9999C50 38.7499 38.75 49.9999 25 49.9999ZM25 2.08327C12.3958 2.08327 2.08333 12.3958 2.08333 24.9999C2.08333 37.6041 12.3958 47.9166 25 47.9166C37.6042 47.9166 47.9167 37.6041 47.9167 24.9999C47.9167 12.3958 37.6042 2.08327 25 2.08327Z" fill="#F9BE26"/>
<path d="M19.7813 13.9999C18.7956 13.9999 18 14.7757 18 15.7368V34.2631C18 35.2241 18.7956 35.9999 19.7813 35.9999C20.7669 35.9999 21.5625 35.2241 21.5625 34.2631V15.7368C21.5625 14.7815 20.7669 13.9999 19.7813 13.9999ZM29.2813 13.9999C28.2956 13.9999 27.5 14.7757 27.5 15.7368V34.2631C27.5 35.2241 28.2956 35.9999 29.2813 35.9999C30.2669 35.9999 31.0625 35.2241 31.0625 34.2631V15.7368C31.0625 14.7815 30.2669 13.9999 29.2813 13.9999Z" fill="#F9BE26"/>
</svg>
