<svg width="36" height="36" viewBox="0 0 36 36" fill="none" xmlns="http://www.w3.org/2000/svg">
<path d="M4.51198 16.6681H5.75398C6.20398 9.3781 12.27 3.6001 19.668 3.6001C27.372 3.6001 33.6 9.8461 33.6 17.5501C33.6 25.2541 27.354 31.4821 19.668 31.4821H19.65C19.074 31.4821 18.588 31.0141 18.588 30.4201C18.588 29.8441 19.056 29.3581 19.65 29.3581H19.668C26.202 29.3581 31.476 24.0661 31.476 17.5501C31.476 11.0161 26.184 5.7241 19.668 5.7241C13.44 5.7241 8.32798 10.5481 7.87798 16.6681H9.46198C9.74998 16.6681 10.002 16.7761 10.2 16.9741C10.614 17.3881 10.614 18.0541 10.2 18.4681L7.71598 20.9521C7.51798 21.1501 7.24798 21.2581 6.97798 21.2581C6.68998 21.2581 6.43798 21.1501 6.23998 20.9521L3.75598 18.4681C3.55798 18.2701 3.44998 18.0001 3.44998 17.7301C3.46798 17.1541 3.93598 16.6681 4.51198 16.6681Z" fill="#A6A6A6"/>
<path d="M14.4 20.7541H16.002V15.6781H14.688V14.9581C15.372 14.8321 15.858 14.6701 16.272 14.4001H17.136V20.7541H18.558V21.6901H14.4V20.7541ZM19.458 20.8441L19.998 20.1061C20.412 20.5201 20.934 20.8801 21.708 20.8801C22.536 20.8801 23.148 20.3041 23.148 19.3321C23.148 18.3601 22.59 17.8021 21.762 17.8021C21.294 17.8021 21.024 17.9461 20.592 18.2161L20.034 17.8561L20.25 14.4001H23.94V15.3541H21.24L21.078 17.2261C21.384 17.0641 21.69 16.9741 22.086 16.9741C23.31 16.9741 24.3 17.6941 24.3 19.2961C24.3 20.9161 23.13 21.8161 21.852 21.8161C20.7 21.8161 19.98 21.3481 19.458 20.8441Z" fill="#A6A6A6"/>
</svg>
