<svg width="50" height="50" viewBox="0 0 50 50" fill="none" xmlns="http://www.w3.org/2000/svg">
<path d="M25 50.0001C11.25 50.0001 0 38.7501 0 25.0001C0 11.2501 11.25 6.10352e-05 25 6.10352e-05C38.75 6.10352e-05 50 11.2501 50 25.0001C50 38.7501 38.75 50.0001 25 50.0001ZM25 2.0834C12.3958 2.0834 2.08333 12.3959 2.08333 25.0001C2.08333 37.6042 12.3958 47.9167 25 47.9167C37.6042 47.9167 47.9167 37.6042 47.9167 25.0001C47.9167 12.3959 37.6042 2.0834 25 2.0834Z" fill="#F9BE26"/>
<path d="M32.8125 28.4376L24.4792 33.9585C21.6667 35.8335 19.2709 34.5835 19.2709 31.146V18.646C19.2709 15.2085 21.5625 13.9585 24.4792 15.8335L32.8125 21.3543C35.625 23.4376 35.625 26.5626 32.8125 28.4376V28.4376Z" fill="#F9BE26"/>
</svg>
